<svg version="1.1" id="Layer_1" xmlns="http://www.w3.org/2000/svg" xmlns:xlink="http://www.w3.org/1999/xlink" x="0px" y="0px"
	 width="100%" viewBox="0 0 518 195" enable-background="new 0 0 518 195" xml:space="preserve">
<path fill="#FEFEFE" opacity="1.000000" stroke="none" 
	d="
M367.000000,196.000000 
	C244.666718,196.000000 122.833420,196.000000 1.000098,196.000000 
	C1.000065,131.000061 1.000065,66.000137 1.000033,1.000150 
	C173.666550,1.000100 346.333099,1.000100 518.999756,1.000050 
	C518.999817,65.999847 518.999817,130.999695 518.999878,195.999771 
	C468.500000,196.000000 418.000000,196.000000 367.000000,196.000000 
M82.854500,116.809586 
	C82.990318,116.959991 83.126137,117.110397 83.507080,117.952805 
	C84.101952,119.875168 84.499664,121.889870 85.344978,123.694954 
	C86.262260,125.653694 87.462784,128.852890 88.775513,128.974915 
	C91.745667,129.250977 94.861298,127.969078 97.912720,127.297943 
	C97.961121,127.287292 97.904068,126.967789 97.965752,126.821785 
	C99.188568,123.927238 101.088211,121.130928 101.511436,118.126068 
	C102.346191,112.199471 106.096703,110.090851 111.192627,109.088730 
	C113.736931,108.588402 116.280182,108.082733 119.181488,107.508736 
	C120.166496,119.541458 124.847450,129.866821 130.107605,140.264725 
	C132.964264,139.394577 135.878799,138.506790 138.467163,137.718369 
	C138.084061,127.635284 136.520493,117.930069 138.335678,108.900726 
	C137.898712,105.233528 137.502670,101.909927 137.282181,100.059502 
	C140.178024,97.275116 142.171326,95.358551 144.164612,93.441971 
	C141.440628,91.513657 140.626633,87.329742 136.283005,87.134262 
	C135.312424,87.090591 133.917755,85.164001 133.594803,83.883270 
	C131.603806,75.988075 129.863907,68.029549 128.076996,60.250858 
	C125.889854,59.636906 123.928932,59.279713 122.135559,58.524582 
	C120.577484,57.868534 107.382195,58.377071 106.259132,59.453011 
	C106.034653,59.668068 105.939507,60.033718 105.823853,60.344490 
	C103.632988,66.231293 101.465607,72.126892 99.257607,78.007248 
	C96.088928,86.446106 92.891548,94.874184 89.494766,103.867195 
	C85.611282,99.129005 82.377441,95.183434 79.079056,91.159119 
	C79.939171,89.887344 80.661301,88.032448 82.008888,86.973381 
	C86.196777,83.682098 85.821014,78.768959 84.326302,75.361435 
	C80.844711,67.424438 74.059761,62.173485 66.033615,59.007263 
	C64.083366,58.237907 61.373478,59.110939 59.076672,59.557156 
	C52.536514,60.827751 45.388191,55.913754 40.169678,60.927216 
	C39.673321,66.678177 39.336731,71.753555 38.734455,76.797203 
	C38.566715,78.201935 37.229996,79.477737 37.102112,80.874260 
	C36.860355,83.514359 37.575268,86.293167 37.063023,88.847992 
	C35.393311,97.175644 33.261677,105.409752 31.508081,113.722107 
	C31.038330,115.948814 30.933342,118.380760 31.283401,120.621223 
	C31.774605,123.765068 32.847912,126.817963 33.826378,130.487885 
	C36.265488,131.945633 39.363636,133.756500 42.671368,130.236084 
	C43.061817,129.820526 44.257851,130.241562 45.055168,130.115234 
	C49.114723,129.472061 53.446388,129.467712 57.163631,127.959846 
	C65.768806,124.469238 74.075226,120.242149 82.854500,116.809586 
M432.365784,114.665024 
	C433.408447,117.166603 434.451080,119.668182 435.483704,122.145653 
	C435.066254,123.694153 433.644104,126.571625 434.266785,127.117828 
	C436.005127,128.642593 438.524689,129.684479 440.860352,130.002365 
	C443.063171,130.302185 445.416870,129.377411 447.717102,129.096985 
	C460.548309,127.532822 471.549744,122.092331 480.694580,113.079292 
	C488.464294,105.421593 489.537048,95.286583 486.974182,85.824173 
	C484.156799,75.422089 476.423950,67.751595 466.284668,63.437191 
	C462.903503,61.998463 458.889160,62.019108 455.151276,61.459423 
	C453.258575,61.176014 451.275513,61.328144 449.440002,60.862602 
	C444.153778,59.521828 440.504822,61.432503 439.151917,66.650116 
	C438.275696,70.029259 437.444580,73.435768 436.880829,76.877129 
	C435.574158,84.853806 434.442047,92.859070 433.158630,101.387848 
	C430.031921,97.776054 427.248901,94.561234 424.418610,91.291817 
	C425.346222,89.906654 426.046082,88.011177 427.403687,86.990944 
	C431.789886,83.694778 431.109528,78.620575 429.648193,75.319756 
	C426.074554,67.247894 419.218628,61.841537 410.882416,58.824333 
	C409.040161,58.157547 406.590973,59.338558 404.414429,59.392410 
	C397.785187,59.556427 391.152618,59.585445 385.635498,59.653309 
	C384.363007,70.549767 383.520874,79.857849 382.140656,89.085449 
	C380.097412,102.745972 372.818726,115.892464 379.049133,130.619202 
	C381.487244,131.854248 384.621674,134.084641 387.873871,130.315247 
	C388.182861,129.957092 389.138763,130.194962 389.780701,130.080154 
	C394.608643,129.216751 399.813568,129.199097 404.179962,127.278580 
	C413.392303,123.226624 422.161865,118.169044 431.135620,113.568047 
	C431.394043,113.435547 431.906555,113.798584 432.365784,114.665024 
M200.397263,81.548164 
	C195.375015,93.390900 190.352783,105.233635 185.444809,116.806938 
	C182.067047,114.982826 179.303391,113.025787 176.230392,111.964470 
	C173.292480,110.949814 170.032776,110.866875 166.599792,110.324699 
	C174.988419,100.136826 183.228882,90.123344 191.475662,80.115074 
	C197.378601,72.951263 196.093735,70.073242 187.578369,66.690796 
	C174.818329,61.622284 161.668762,61.794216 148.149475,62.354851 
	C147.390701,63.524029 146.377182,65.085716 145.952148,65.740646 
	C147.617966,67.200867 150.144119,68.409706 150.114548,69.552422 
	C149.921860,76.998390 152.814774,80.294136 160.345825,80.318871 
	C163.847626,80.330368 167.349487,80.320839 170.978989,80.320839 
	C168.729431,83.121193 166.843094,85.637665 164.779007,87.998764 
	C161.807816,91.397484 158.569778,94.569206 155.692535,98.042358 
	C150.663910,104.112488 142.508362,108.712082 145.544418,118.791985 
	C145.746597,119.463264 145.180191,120.383385 144.923401,121.172195 
	C144.228455,123.307030 142.774368,125.326996 145.540649,127.323051 
	C148.050690,129.134201 149.680664,131.081772 153.716507,129.807205 
	C160.252655,127.743027 167.231033,126.869240 174.091156,126.118965 
	C178.253281,125.663750 182.544220,126.386467 187.479172,126.612091 
	C189.444397,130.473511 193.692947,128.676865 197.525681,128.277786 
	C198.299500,128.197220 199.348083,127.528320 199.665466,126.848465 
	C201.062256,123.856461 202.832657,120.859436 203.358109,117.680809 
	C204.213974,112.503426 207.354721,110.336456 211.920776,109.329605 
	C214.797607,108.695229 217.688828,108.126160 220.974747,107.444580 
	C221.786545,119.472458 226.590225,129.784164 231.800400,140.261627 
	C234.650284,139.417542 237.580429,138.549667 240.095047,137.804886 
	C240.096298,127.677284 237.792557,117.895134 239.840195,108.402924 
	C239.527679,105.151001 239.215164,101.899078 238.893433,98.551315 
	C239.884964,98.210487 240.673752,97.978088 241.432907,97.672173 
	C246.776001,95.519135 246.904556,94.483589 242.688904,90.941620 
	C241.872208,90.255424 241.825897,88.652306 241.353806,87.265274 
	C236.460724,88.455017 235.439987,85.602165 234.690765,81.697739 
	C233.286072,74.377464 231.400879,67.149384 230.058243,61.360588 
	C222.440445,54.988655 215.244385,58.907631 207.764496,59.262039 
	C205.373520,66.358795 202.948456,73.556709 200.397263,81.548164 
M295.602661,138.039932 
	C295.974640,137.447144 296.696014,136.835846 296.665741,136.264389 
	C296.271637,128.826843 295.629486,121.399406 295.394897,113.958542 
	C295.334930,112.057526 296.480133,110.118492 297.071625,108.196922 
	C296.796448,108.305779 296.521271,108.414635 296.246094,108.523491 
	C295.870392,105.198990 295.494690,101.874489 295.139587,98.732437 
	C297.255951,97.790443 299.386963,97.445824 300.425446,96.194504 
	C301.305298,95.134331 301.541931,92.730804 300.936432,91.457657 
	C300.221497,89.954483 298.295135,89.027489 296.317902,87.366867 
	C295.600220,87.294052 293.987946,87.130486 292.243713,86.953529 
	C290.134521,77.837486 288.078766,68.952423 286.314301,61.326260 
	C280.252533,56.762554 274.477509,57.057430 268.584351,58.870270 
	C268.279968,58.963898 267.912750,58.933163 267.590149,58.875080 
	C264.891724,58.389259 263.855804,59.848907 263.062134,62.206985 
	C260.494965,69.834167 257.283478,77.269600 255.124435,85.003418 
	C251.509216,97.953255 240.364227,108.652016 243.430313,123.515572 
	C243.868774,125.641182 245.561371,128.885910 247.058899,129.117157 
	C249.839600,129.546539 252.906982,128.145554 255.842148,127.452141 
	C255.959702,127.424362 255.885590,126.815109 256.001556,126.515846 
	C257.495819,122.660057 258.904236,118.765472 260.570282,114.984665 
	C261.192352,113.572937 262.174683,111.753624 263.426849,111.288300 
	C267.799866,109.663177 272.362518,108.548386 276.320038,107.395027 
	C279.878052,115.949249 278.459625,124.909973 284.701813,131.692429 
	C286.504547,133.651199 286.541901,137.234756 287.471619,140.351685 
	C290.170227,139.595200 292.496460,138.943085 295.602661,138.039932 
M347.315552,73.444054 
	C346.276855,68.206581 342.772186,65.122269 338.179718,62.994312 
	C325.459045,57.100063 314.401215,61.222569 303.895264,68.613647 
	C304.405060,75.922340 305.058441,77.110092 309.336945,78.899170 
	C307.111145,91.189178 304.687286,103.392410 302.744415,115.671745 
	C301.171600,125.612228 306.292297,129.922729 316.424744,127.603592 
	C317.264709,120.451576 318.108307,113.268387 319.077850,105.013268 
	C320.174377,106.935242 320.796844,107.870842 321.268494,108.877113 
	C325.944214,118.851845 332.922119,127.020264 341.091156,134.266312 
	C347.950562,140.350723 348.191956,140.392227 356.157959,136.361649 
	C357.527466,130.628998 354.303467,127.295174 350.669525,123.441841 
	C344.396729,116.790314 339.015320,109.298187 332.964081,101.791824 
	C342.157684,99.192627 346.285065,92.522240 349.386383,84.930984 
	C349.815460,83.880745 350.242737,81.751907 350.137054,81.716515 
	C346.006653,80.333427 348.389374,76.693817 347.315552,73.444054 
z"/>
<path fill="#050505" opacity="1.000000" stroke="none" 
	d="
M82.502792,116.313705 
	C74.075226,120.242149 65.768806,124.469238 57.163631,127.959846 
	C53.446388,129.467712 49.114723,129.472061 45.055168,130.115234 
	C44.257851,130.241562 43.061817,129.820526 42.671368,130.236084 
	C39.363636,133.756500 36.265488,131.945633 33.826378,130.487885 
	C32.847912,126.817963 31.774605,123.765068 31.283401,120.621223 
	C30.933342,118.380760 31.038330,115.948814 31.508081,113.722107 
	C33.261677,105.409752 35.393311,97.175644 37.063023,88.847992 
	C37.575268,86.293167 36.860355,83.514359 37.102112,80.874260 
	C37.229996,79.477737 38.566715,78.201935 38.734455,76.797203 
	C39.336731,71.753555 39.673321,66.678177 40.169678,60.927216 
	C45.388191,55.913754 52.536514,60.827751 59.076672,59.557156 
	C61.373478,59.110939 64.083366,58.237907 66.033615,59.007263 
	C74.059761,62.173485 80.844711,67.424438 84.326302,75.361435 
	C85.821014,78.768959 86.196777,83.682098 82.008888,86.973381 
	C80.661301,88.032448 79.939171,89.887344 79.079056,91.159119 
	C82.377441,95.183434 85.611282,99.129005 89.494766,103.867195 
	C92.891548,94.874184 96.088928,86.446106 99.257607,78.007248 
	C101.465607,72.126892 103.632988,66.231293 105.823853,60.344490 
	C105.939507,60.033718 106.034653,59.668068 106.259132,59.453011 
	C107.382195,58.377071 120.577484,57.868534 122.135559,58.524582 
	C123.928932,59.279713 125.889854,59.636906 128.076996,60.250858 
	C129.863907,68.029549 131.603806,75.988075 133.594803,83.883270 
	C133.917755,85.164001 135.312424,87.090591 136.283005,87.134262 
	C140.626633,87.329742 141.440628,91.513657 144.164612,93.441971 
	C142.171326,95.358551 140.178024,97.275116 137.282181,100.059502 
	C137.502670,101.909927 137.898712,105.233528 138.335678,108.900726 
	C136.520493,117.930069 138.084061,127.635284 138.467163,137.718369 
	C135.878799,138.506790 132.964264,139.394577 130.107605,140.264725 
	C124.847450,129.866821 120.166496,119.541458 119.181488,107.508736 
	C116.280182,108.082733 113.736931,108.588402 111.192627,109.088730 
	C106.096703,110.090851 102.346191,112.199471 101.511436,118.126068 
	C101.088211,121.130928 99.188568,123.927238 97.965752,126.821785 
	C97.904068,126.967789 97.961121,127.287292 97.912720,127.297943 
	C94.861298,127.969078 91.745667,129.250977 88.775513,128.974915 
	C87.462784,128.852890 86.262260,125.653694 85.344978,123.694954 
	C84.499664,121.889870 84.101952,119.875168 83.608025,117.473328 
	C83.306908,116.767143 82.904854,116.540421 82.502792,116.313705 
M67.316986,105.820366 
	C69.687294,104.522224 72.057594,103.224075 74.427902,101.925934 
	C74.311043,101.417809 74.194183,100.909683 74.077332,100.401558 
	C66.475235,100.401558 58.873150,100.401558 51.175575,100.401558 
	C50.486187,104.421379 49.860172,108.071678 48.958942,113.326759 
	C55.741329,110.552414 61.181850,108.326958 67.316986,105.820366 
M57.669399,73.696259 
	C54.241619,75.508224 53.892994,78.296341 54.994728,81.590050 
	C61.409576,81.895393 66.914093,80.657028 71.027954,73.328407 
	C66.149155,73.328407 62.276299,73.328407 57.669399,73.696259 
M114.133644,91.984123 
	C120.943855,89.830299 116.230774,85.924187 115.586662,82.590668 
	C114.182098,85.064384 113.079300,87.614090 112.204231,90.239700 
	C112.062027,90.666389 112.928329,91.429214 114.133644,91.984123 
z"/>
<path fill="#067536" opacity="1.000000" stroke="none" 
	d="
M432.333191,114.297806 
	C431.906555,113.798584 431.394043,113.435547 431.135620,113.568047 
	C422.161865,118.169044 413.392303,123.226624 404.179962,127.278580 
	C399.813568,129.199097 394.608643,129.216751 389.780701,130.080154 
	C389.138763,130.194962 388.182861,129.957092 387.873871,130.315247 
	C384.621674,134.084641 381.487244,131.854248 379.049133,130.619202 
	C372.818726,115.892464 380.097412,102.745972 382.140656,89.085449 
	C383.520874,79.857849 384.363007,70.549767 385.635498,59.653309 
	C391.152618,59.585445 397.785187,59.556427 404.414429,59.392410 
	C406.590973,59.338558 409.040161,58.157547 410.882416,58.824333 
	C419.218628,61.841537 426.074554,67.247894 429.648193,75.319756 
	C431.109528,78.620575 431.789886,83.694778 427.403687,86.990944 
	C426.046082,88.011177 425.346222,89.906654 424.418610,91.291817 
	C427.248901,94.561234 430.031921,97.776054 433.158630,101.387848 
	C434.442047,92.859070 435.574158,84.853806 436.880829,76.877129 
	C437.444580,73.435768 438.275696,70.029259 439.151917,66.650116 
	C440.504822,61.432503 444.153778,59.521828 449.440002,60.862602 
	C451.275513,61.328144 453.258575,61.176014 455.151276,61.459423 
	C458.889160,62.019108 462.903503,61.998463 466.284668,63.437191 
	C476.423950,67.751595 484.156799,75.422089 486.974182,85.824173 
	C489.537048,95.286583 488.464294,105.421593 480.694580,113.079292 
	C471.549744,122.092331 460.548309,127.532822 447.717102,129.096985 
	C445.416870,129.377411 443.063171,130.302185 440.860352,130.002365 
	C438.524689,129.684479 436.005127,128.642593 434.266785,127.117828 
	C433.644104,126.571625 435.066254,123.694153 435.483704,122.145653 
	C434.451080,119.668182 433.408447,117.166603 432.333191,114.297806 
M466.057953,102.737785 
	C467.883118,100.603615 469.977448,98.641891 471.477875,96.299698 
	C474.687683,91.289230 474.778687,84.491196 472.018494,81.309364 
	C469.198975,78.059113 459.581177,76.317696 455.162933,78.397644 
	C454.240143,78.832062 453.073761,79.793900 452.925049,80.666901 
	C451.354950,89.884628 449.968414,99.133629 448.355621,109.503067 
	C454.942780,107.038475 460.184052,105.077446 466.057953,102.737785 
M412.980347,105.459435 
	C415.105469,104.360558 417.230560,103.261688 419.355682,102.162819 
	C419.251434,101.515190 419.147217,100.867569 419.042999,100.219948 
	C411.943359,100.219948 404.843201,100.184326 397.745300,100.295250 
	C397.239319,100.303154 396.432129,101.325203 396.307068,101.979332 
	C395.697876,105.166359 395.273102,108.388641 394.558929,113.066460 
	C401.201202,110.366013 406.763336,108.104691 412.980347,105.459435 
M410.088654,80.097496 
	C411.953339,78.404015 413.818024,76.710533 416.157227,74.586098 
	C410.561279,73.171387 405.707458,71.302292 401.560730,74.943199 
	C400.151428,76.180542 400.260559,79.147263 399.537872,81.837265 
	C403.671692,81.342133 406.600189,80.991371 410.088654,80.097496 
z"/>
<path fill="#050505" opacity="1.000000" stroke="none" 
	d="
M200.460327,81.151398 
	C202.948456,73.556709 205.373520,66.358795 207.764496,59.262039 
	C215.244385,58.907631 222.440445,54.988655 230.058243,61.360588 
	C231.400879,67.149384 233.286072,74.377464 234.690765,81.697739 
	C235.439987,85.602165 236.460724,88.455017 241.353806,87.265274 
	C241.825897,88.652306 241.872208,90.255424 242.688904,90.941620 
	C246.904556,94.483589 246.776001,95.519135 241.432907,97.672173 
	C240.673752,97.978088 239.884964,98.210487 238.893433,98.551315 
	C239.215164,101.899078 239.527679,105.151001 239.840195,108.402924 
	C237.792557,117.895134 240.096298,127.677284 240.095047,137.804886 
	C237.580429,138.549667 234.650284,139.417542 231.800400,140.261627 
	C226.590225,129.784164 221.786545,119.472458 220.974747,107.444580 
	C217.688828,108.126160 214.797607,108.695229 211.920776,109.329605 
	C207.354721,110.336456 204.213974,112.503426 203.358109,117.680809 
	C202.832657,120.859436 201.062256,123.856461 199.665466,126.848465 
	C199.348083,127.528320 198.299500,128.197220 197.525681,128.277786 
	C193.692947,128.676865 189.444397,130.473511 187.479172,126.612091 
	C182.544220,126.386467 178.253281,125.663750 174.091156,126.118965 
	C167.231033,126.869240 160.252655,127.743027 153.716507,129.807205 
	C149.680664,131.081772 148.050690,129.134201 145.540649,127.323051 
	C142.774368,125.326996 144.228455,123.307030 144.923401,121.172195 
	C145.180191,120.383385 145.746597,119.463264 145.544418,118.791985 
	C142.508362,108.712082 150.663910,104.112488 155.692535,98.042358 
	C158.569778,94.569206 161.807816,91.397484 164.779007,87.998764 
	C166.843094,85.637665 168.729431,83.121193 170.978989,80.320839 
	C167.349487,80.320839 163.847626,80.330368 160.345825,80.318871 
	C152.814774,80.294136 149.921860,76.998390 150.114548,69.552422 
	C150.144119,68.409706 147.617966,67.200867 145.952148,65.740646 
	C146.377182,65.085716 147.390701,63.524029 148.149475,62.354851 
	C161.668762,61.794216 174.818329,61.622284 187.578369,66.690796 
	C196.093735,70.073242 197.378601,72.951263 191.475662,80.115074 
	C183.228882,90.123344 174.988419,100.136826 166.599792,110.324699 
	C170.032776,110.866875 173.292480,110.949814 176.230392,111.964470 
	C179.303391,113.025787 182.067047,114.982826 185.444809,116.806938 
	C190.352783,105.233635 195.375015,93.390900 200.460327,81.151398 
M219.462936,89.322678 
	C218.900436,87.091766 218.337936,84.860855 217.775436,82.629936 
	C217.421982,82.644440 217.068527,82.658936 216.715073,82.673439 
	C215.635208,85.642036 214.555359,88.610641 213.475494,91.579247 
	C213.763290,91.895638 214.051086,92.212029 214.338882,92.528427 
	C215.951233,91.689110 217.563599,90.849800 219.462936,89.322678 
z"/>
<path fill="#060606" opacity="1.000000" stroke="none" 
	d="
M295.212708,138.165451 
	C292.496460,138.943085 290.170227,139.595200 287.471619,140.351685 
	C286.541901,137.234756 286.504547,133.651199 284.701813,131.692429 
	C278.459625,124.909973 279.878052,115.949249 276.320038,107.395027 
	C272.362518,108.548386 267.799866,109.663177 263.426849,111.288300 
	C262.174683,111.753624 261.192352,113.572937 260.570282,114.984665 
	C258.904236,118.765472 257.495819,122.660057 256.001556,126.515846 
	C255.885590,126.815109 255.959702,127.424362 255.842148,127.452141 
	C252.906982,128.145554 249.839600,129.546539 247.058899,129.117157 
	C245.561371,128.885910 243.868774,125.641182 243.430313,123.515572 
	C240.364227,108.652016 251.509216,97.953255 255.124435,85.003418 
	C257.283478,77.269600 260.494965,69.834167 263.062134,62.206985 
	C263.855804,59.848907 264.891724,58.389259 267.590149,58.875080 
	C267.912750,58.933163 268.279968,58.963898 268.584351,58.870270 
	C274.477509,57.057430 280.252533,56.762554 286.314301,61.326260 
	C288.078766,68.952423 290.134521,77.837486 292.243713,86.953529 
	C293.987946,87.130486 295.600220,87.294052 296.317902,87.366867 
	C298.295135,89.027489 300.221497,89.954483 300.936432,91.457657 
	C301.541931,92.730804 301.305298,95.134331 300.425446,96.194504 
	C299.386963,97.445824 297.255951,97.790443 295.139587,98.732437 
	C295.494690,101.874489 295.870392,105.198990 296.246094,108.523491 
	C296.521271,108.414635 296.796448,108.305779 297.071625,108.196922 
	C296.480133,110.118492 295.334930,112.057526 295.394897,113.958542 
	C295.629486,121.399406 296.271637,128.826843 296.665741,136.264389 
	C296.696014,136.835846 295.974640,137.447144 295.212708,138.165451 
M272.370972,84.304459 
	C271.474121,86.723442 270.577271,89.142433 269.345001,92.466026 
	C271.586914,91.849251 273.747772,91.848007 274.125793,91.026451 
	C274.896606,89.351151 274.888245,87.225822 274.802094,85.303749 
	C274.776428,84.730606 273.424347,84.216904 272.370972,84.304459 
z"/>
<path fill="#060606" opacity="1.000000" stroke="none" 
	d="
M347.390259,73.852592 
	C348.389374,76.693817 346.006653,80.333427 350.137054,81.716515 
	C350.242737,81.751907 349.815460,83.880745 349.386383,84.930984 
	C346.285065,92.522240 342.157684,99.192627 332.964081,101.791824 
	C339.015320,109.298187 344.396729,116.790314 350.669525,123.441841 
	C354.303467,127.295174 357.527466,130.628998 356.157959,136.361649 
	C348.191956,140.392227 347.950562,140.350723 341.091156,134.266312 
	C332.922119,127.020264 325.944214,118.851845 321.268494,108.877113 
	C320.796844,107.870842 320.174377,106.935242 319.077850,105.013268 
	C318.108307,113.268387 317.264709,120.451576 316.424744,127.603592 
	C306.292297,129.922729 301.171600,125.612228 302.744415,115.671745 
	C304.687286,103.392410 307.111145,91.189178 309.336945,78.899170 
	C305.058441,77.110092 304.405060,75.922340 303.895264,68.613647 
	C314.401215,61.222569 325.459045,57.100063 338.179718,62.994312 
	C342.772186,65.122269 346.276855,68.206581 347.390259,73.852592 
M328.970490,84.641205 
	C331.901733,82.153534 334.833008,79.665863 338.811584,76.289352 
	C334.874817,74.793045 332.501343,73.386009 330.012634,73.138794 
	C328.573639,72.995850 326.029297,74.398605 325.581787,75.669083 
	C324.285370,79.349449 323.797882,83.314758 322.798187,88.100449 
	C325.191406,86.765862 326.754974,85.893913 328.970490,84.641205 
z"/>
<path fill="#F1F1F1" opacity="1.000000" stroke="none" 
	d="
M66.969681,105.960938 
	C61.181850,108.326958 55.741329,110.552414 48.958942,113.326759 
	C49.860172,108.071678 50.486187,104.421379 51.175575,100.401558 
	C58.873150,100.401558 66.475235,100.401558 74.077332,100.401558 
	C74.194183,100.909683 74.311043,101.417809 74.427902,101.925934 
	C72.057594,103.224075 69.687294,104.522224 66.969681,105.960938 
z"/>
<path fill="#EFEFEF" opacity="1.000000" stroke="none" 
	d="
M58.036419,73.512329 
	C62.276299,73.328407 66.149155,73.328407 71.027954,73.328407 
	C66.914093,80.657028 61.409576,81.895393 54.994728,81.590050 
	C53.892994,78.296341 54.241619,75.508224 58.036419,73.512329 
z"/>
<path fill="#D4D4D4" opacity="1.000000" stroke="none" 
	d="
M113.731064,92.010399 
	C112.928329,91.429214 112.062027,90.666389 112.204231,90.239700 
	C113.079300,87.614090 114.182098,85.064384 115.586662,82.590668 
	C116.230774,85.924187 120.943855,89.830299 113.731064,92.010399 
z"/>
<path fill="#FEFEFE" opacity="1.000000" stroke="none" 
	d="
M82.678650,116.561646 
	C82.904854,116.540421 83.306908,116.767143 83.485458,117.127327 
	C83.126137,117.110397 82.990318,116.959991 82.678650,116.561646 
z"/>
<path fill="#F8FBFA" opacity="1.000000" stroke="none" 
	d="
M465.741638,102.927109 
	C460.184052,105.077446 454.942780,107.038475 448.355621,109.503067 
	C449.968414,99.133629 451.354950,89.884628 452.925049,80.666901 
	C453.073761,79.793900 454.240143,78.832062 455.162933,78.397644 
	C459.581177,76.317696 469.198975,78.059113 472.018494,81.309364 
	C474.778687,84.491196 474.687683,91.289230 471.477875,96.299698 
	C469.977448,98.641891 467.883118,100.603615 465.741638,102.927109 
z"/>
<path fill="#F4F9F6" opacity="1.000000" stroke="none" 
	d="
M412.652924,105.651398 
	C406.763336,108.104691 401.201202,110.366013 394.558929,113.066460 
	C395.273102,108.388641 395.697876,105.166359 396.307068,101.979332 
	C396.432129,101.325203 397.239319,100.303154 397.745300,100.295250 
	C404.843201,100.184326 411.943359,100.219948 419.042999,100.219948 
	C419.147217,100.867569 419.251434,101.515190 419.355682,102.162819 
	C417.230560,103.261688 415.105469,104.360558 412.652924,105.651398 
z"/>
<path fill="#F2F8F4" opacity="1.000000" stroke="none" 
	d="
M409.808655,80.369049 
	C406.600189,80.991371 403.671692,81.342133 399.537872,81.837265 
	C400.260559,79.147263 400.151428,76.180542 401.560730,74.943199 
	C405.707458,71.302292 410.561279,73.171387 416.157227,74.586098 
	C413.818024,76.710533 411.953339,78.404015 409.808655,80.369049 
z"/>
<path fill="#D4D4D4" opacity="1.000000" stroke="none" 
	d="
M219.319443,89.666580 
	C217.563599,90.849800 215.951233,91.689110 214.338882,92.528427 
	C214.051086,92.212029 213.763290,91.895638 213.475494,91.579247 
	C214.555359,88.610641 215.635208,85.642036 216.715073,82.673439 
	C217.068527,82.658936 217.421982,82.644440 217.775436,82.629936 
	C218.337936,84.860855 218.900436,87.091766 219.319443,89.666580 
z"/>
<path fill="#D4D4D4" opacity="1.000000" stroke="none" 
	d="
M272.525482,83.990211 
	C273.424347,84.216904 274.776428,84.730606 274.802094,85.303749 
	C274.888245,87.225822 274.896606,89.351151 274.125793,91.026451 
	C273.747772,91.848007 271.586914,91.849251 269.345001,92.466026 
	C270.577271,89.142433 271.474121,86.723442 272.525482,83.990211 
z"/>
<path fill="#EFEFEF" opacity="1.000000" stroke="none" 
	d="
M328.644531,84.831589 
	C326.754974,85.893913 325.191406,86.765862 322.798187,88.100449 
	C323.797882,83.314758 324.285370,79.349449 325.581787,75.669083 
	C326.029297,74.398605 328.573639,72.995850 330.012634,73.138794 
	C332.501343,73.386009 334.874817,74.793045 338.811584,76.289352 
	C334.833008,79.665863 331.901733,82.153534 328.644531,84.831589 
z"/>
</svg>